<svg width="496" height="541" viewBox="0 0 496 541" fill="none" xmlns="http://www.w3.org/2000/svg">
<path d="M15.4907 1C20.5915 10.4077 40.2444 36.4393 78.0495 65.3045C125.306 101.386 157.607 103.712 172.596 108.454M172.596 108.454L167.871 101.865M172.596 108.454L164.822 111.966" stroke="#78C081" stroke-width="2" stroke-linecap="round" stroke-linejoin="round"/>
<path d="M294 128.5C347.5 128.5 400.752 145.36 414.545 190.772C423.563 228.096 406.027 255.348 374.221 288.321M374.221 288.321L382.5 287M374.221 288.321L374 279" stroke="#78C081" stroke-width="2" stroke-linecap="round" stroke-linejoin="round"/>
<path d="M242 328C197 343 101.71 382.808 97.4396 424.432C94.1181 456.806 114 470 132.81 471.239M132.81 471.239L128.5 465M132.81 471.239L126 475" stroke="#78C081" stroke-width="2" stroke-linecap="round" stroke-linejoin="round"/>
<path d="M251 499.175C290.716 520.13 356.428 532.054 395.661 531.008C418.097 530.41 462.408 528.93 493.824 494.189M493.824 494.189L489.446 499.897M493.824 494.189L485.089 492.18" stroke="#78C081" stroke-width="2" stroke-linecap="round" stroke-linejoin="round"/>
</svg>
